<?xml version="1.0" encoding="UTF-8" standalone="no"?>
<svg
   xmlns:dc="http://purl.org/dc/elements/1.1/"
   xmlns:cc="http://creativecommons.org/ns#"
   xmlns:rdf="http://www.w3.org/1999/02/22-rdf-syntax-ns#"
   xmlns:svg="http://www.w3.org/2000/svg"
   xmlns="http://www.w3.org/2000/svg"
   xmlns:sodipodi="http://sodipodi.sourceforge.net/DTD/sodipodi-0.dtd"
   xmlns:inkscape="http://www.inkscape.org/namespaces/inkscape"
   width="512"
   height="512"
   viewBox="0 0 512 512"
   version="1.1"
   id="svg3719"
   sodipodi:docname="logoHugo.svg"
   inkscape:version="0.92.2 (5c3e80d, 2017-08-06)">
  <metadata
     id="metadata3725">
    <rdf:RDF>
      <cc:Work
         rdf:about="">
        <dc:format>image/svg+xml</dc:format>
        <dc:type
           rdf:resource="http://purl.org/dc/dcmitype/StillImage" />
        <dc:title></dc:title>
      </cc:Work>
    </rdf:RDF>
  </metadata>
  <defs
     id="defs3723" />
  <sodipodi:namedview
     pagecolor="#ffffff"
     bordercolor="#666666"
     borderopacity="1"
     objecttolerance="10"
     gridtolerance="10"
     guidetolerance="10"
     inkscape:pageopacity="0"
     inkscape:pageshadow="2"
     inkscape:window-width="1050"
     inkscape:window-height="524"
     id="namedview3721"
     showgrid="false"
     inkscape:snap-nodes="true"
     inkscape:zoom="1.0214844"
     inkscape:cx="251.59465"
     inkscape:cy="263.5592"
     inkscape:window-x="53"
     inkscape:window-y="571"
     inkscape:window-maximized="0"
     inkscape:current-layer="svg3719" />
  <path
     fill="#0143a3"
     d="M256 21.6V490.2c26.6-14.1 52.9-30.7 79.4-45.8l98.4-57.6 34.6-289.1C397.6 72.3 326.8 47 256 21.6z"
     id="path3713" />
  <path
     fill="#0273d4"
     d="M256 21.6v468.6c-26.6-14.1-52.9-30.7-79.4-45.8-32.8-19.2-65.6-38.4-98.4-57.6L43.6 97.7C114.4 72.3 185.2 47 256 21.6z"
     id="path3715" />
  <path
     style="fill:#ffffff;stroke-width:1.05478489"
     d="m 194.55126,379.936 c -17.14712,-2.59914 -31.33254,-4.86005 -31.52315,-5.02425 -0.18793,-0.16187 9.04255,-65.54555 12.32753,-135.05902 2.96781,-62.80162 0.003,-130.4134 0.18745,-130.57202 0.66167,-0.56997 35.00689,-3.43962 35.55156,-2.97044 0.35871,0.309 2.09664,21.33646 3.86206,46.7277 1.76543,25.39124 3.3769,46.2793 3.58108,46.41792 0.43541,0.29561 75.83226,3.54189 81.51149,3.50955 l 3.86005,-0.022 -0.74055,-27.65583 c -0.4073,-15.21071 -1.06576,-36.57668 -1.46326,-47.47993 l -0.7227,-19.82409 h 21.68184 21.68182 l -0.53044,3.18165 c -1.99387,11.95913 -12.02631,118.77108 -11.94846,127.211 0.0531,5.75802 1.3353,19.19435 2.8493,29.85851 3.49902,24.64614 12.5302,103.00284 11.93001,103.50768 -0.64011,0.53841 -55.53173,3.86217 -56.06109,3.39457 -0.23957,-0.21162 -2.43623,-27.14094 -4.88147,-59.84292 -2.44522,-32.70197 -4.76316,-59.73145 -5.15093,-60.0655 -0.67862,-0.58456 -58.62854,3.95692 -59.28956,4.64648 -0.17821,0.18588 0.78112,28.31197 2.1318,62.50241 1.3507,34.19044 2.42801,62.19139 2.39401,62.22433 -0.034,0.033 -14.09127,-2.06667 -31.23839,-4.66582 z m 71.73211,-145.6911 c 20.43037,-2.13969 37.69057,-3.89035 38.35601,-3.89035 1.77125,0 1.57058,-10.72162 -0.2107,-11.2573 -1.63796,-0.49255 -75.32451,-5.38515 -81.10498,-5.38515 h -3.84646 v 12.78656 12.78657 l 4.83002,-0.575 c 2.65651,-0.31624 21.54575,-2.32564 41.97611,-4.46533 z"
     id="path3743"
     inkscape:connector-curvature="0"
     sodipodi:nodetypes="ccsccscccsccccccsccsccscccsscsccccs" />
  <path
     style="fill:#ffffff;stroke-width:1.79154634"
     d="m 241.91877,180.68635 c -21.27906,-10.87575 -23.48536,-35.99043 -4.42231,-50.34034 21.20487,-15.9622 51.73739,-5.45982 57.62207,19.82049 1.85115,7.95227 -2.00854,18.06699 -9.52792,24.96898 -12.22988,11.22574 -28.51796,13.29602 -43.67184,5.55087 z"
     id="path3745"
     inkscape:connector-curvature="0" />
</svg>
